<mxfile host="app.diagrams.net" modified="2023-06-09T11:33:19.358Z" agent="Mozilla/5.0 (Windows NT 10.0; Win64; x64) AppleWebKit/537.36 (KHTML, like Gecko) Chrome/113.0.0.0 Safari/537.36" etag="Lemc9zFHrwQJAwq4uvKd" version="21.3.7" type="device">
  <diagram name="Page-1" id="2YBvvXClWsGukQMizWep">
    <mxGraphModel dx="947" dy="1098" grid="1" gridSize="10" guides="1" tooltips="1" connect="1" arrows="1" fold="1" page="1" pageScale="1" pageWidth="850" pageHeight="1100" math="0" shadow="0">
      <root>
        <mxCell id="0" />
        <mxCell id="1" parent="0" />
        <mxCell id="uU5RGSB3s6F5FcrHu-Rf-1" value="Registrar" style="swimlane;whiteSpace=wrap;html=1;fontSize=16;" vertex="1" parent="1">
          <mxGeometry x="160" y="50" width="360" height="1380" as="geometry" />
        </mxCell>
        <mxCell id="uU5RGSB3s6F5FcrHu-Rf-2" value="" style="edgeStyle=none;curved=1;rounded=0;orthogonalLoop=1;jettySize=auto;html=1;fontSize=12;startSize=8;endSize=8;exitX=0.5;exitY=1;exitDx=0;exitDy=0;" edge="1" parent="uU5RGSB3s6F5FcrHu-Rf-1" source="uU5RGSB3s6F5FcrHu-Rf-8">
          <mxGeometry relative="1" as="geometry">
            <mxPoint x="165" y="180" as="sourcePoint" />
            <mxPoint x="165" y="230" as="targetPoint" />
          </mxGeometry>
        </mxCell>
        <mxCell id="uU5RGSB3s6F5FcrHu-Rf-3" value="System" style="swimlane;whiteSpace=wrap;html=1;fontSize=16;" vertex="1" parent="1">
          <mxGeometry x="520" y="50" width="360" height="1380" as="geometry" />
        </mxCell>
        <mxCell id="uU5RGSB3s6F5FcrHu-Rf-4" style="edgeStyle=none;curved=1;rounded=0;orthogonalLoop=1;jettySize=auto;html=1;fontSize=12;startSize=8;endSize=8;" edge="1" parent="1">
          <mxGeometry relative="1" as="geometry">
            <mxPoint x="400" y="299.77" as="sourcePoint" />
            <mxPoint x="640" y="299.77" as="targetPoint" />
          </mxGeometry>
        </mxCell>
        <mxCell id="uU5RGSB3s6F5FcrHu-Rf-5" value="act&amp;nbsp; Administration subsystem" style="shape=umlFrame;whiteSpace=wrap;html=1;pointerEvents=0;fontSize=16;width=320;height=20;" vertex="1" parent="1">
          <mxGeometry x="80" y="10" width="860" height="1460" as="geometry" />
        </mxCell>
        <mxCell id="uU5RGSB3s6F5FcrHu-Rf-6" style="edgeStyle=none;curved=1;rounded=0;orthogonalLoop=1;jettySize=auto;html=1;exitX=0.5;exitY=1;exitDx=0;exitDy=0;entryX=0.5;entryY=0;entryDx=0;entryDy=0;fontSize=12;startSize=8;endSize=8;" edge="1" parent="1" source="uU5RGSB3s6F5FcrHu-Rf-7" target="uU5RGSB3s6F5FcrHu-Rf-8">
          <mxGeometry relative="1" as="geometry">
            <mxPoint x="325" y="130" as="targetPoint" />
          </mxGeometry>
        </mxCell>
        <mxCell id="uU5RGSB3s6F5FcrHu-Rf-7" value="" style="ellipse;html=1;shape=startState;fillColor=#000000;strokeColor=#ff0000;fontSize=16;" vertex="1" parent="1">
          <mxGeometry x="310" y="80" width="30" height="30" as="geometry" />
        </mxCell>
        <mxCell id="uU5RGSB3s6F5FcrHu-Rf-8" value="Go to &quot;Admin Portal Room Management&quot; page" style="rounded=1;whiteSpace=wrap;html=1;absoluteArcSize=1;arcSize=14;strokeWidth=2;fontSize=16;" vertex="1" parent="1">
          <mxGeometry x="250" y="140" width="150" height="70" as="geometry" />
        </mxCell>
        <mxCell id="uU5RGSB3s6F5FcrHu-Rf-9" value="Click &quot;Room Availability&quot;" style="rounded=1;whiteSpace=wrap;html=1;absoluteArcSize=1;arcSize=14;strokeWidth=2;fontSize=16;" vertex="1" parent="1">
          <mxGeometry x="250" y="280" width="150" height="40" as="geometry" />
        </mxCell>
        <mxCell id="uU5RGSB3s6F5FcrHu-Rf-10" style="edgeStyle=none;curved=1;rounded=0;orthogonalLoop=1;jettySize=auto;html=1;exitX=0.5;exitY=1;exitDx=0;exitDy=0;entryX=0.5;entryY=0;entryDx=0;entryDy=0;entryPerimeter=0;fontSize=12;startSize=8;endSize=8;" edge="1" parent="1" source="uU5RGSB3s6F5FcrHu-Rf-12" target="uU5RGSB3s6F5FcrHu-Rf-21">
          <mxGeometry relative="1" as="geometry" />
        </mxCell>
        <mxCell id="uU5RGSB3s6F5FcrHu-Rf-11" style="edgeStyle=orthogonalEdgeStyle;rounded=0;orthogonalLoop=1;jettySize=auto;html=1;exitX=1;exitY=0.5;exitDx=0;exitDy=0;entryX=1;entryY=0.5;entryDx=0;entryDy=0;fontSize=12;startSize=8;endSize=8;exitPerimeter=0;" edge="1" parent="1" source="uU5RGSB3s6F5FcrHu-Rf-21" target="uU5RGSB3s6F5FcrHu-Rf-8">
          <mxGeometry relative="1" as="geometry">
            <Array as="points">
              <mxPoint x="820" y="425" />
              <mxPoint x="820" y="175" />
            </Array>
          </mxGeometry>
        </mxCell>
        <mxCell id="uU5RGSB3s6F5FcrHu-Rf-12" value="Display list of available rooms and current status" style="rounded=1;whiteSpace=wrap;html=1;absoluteArcSize=1;arcSize=14;strokeWidth=2;fontSize=16;" vertex="1" parent="1">
          <mxGeometry x="640" y="268.75" width="150" height="62.5" as="geometry" />
        </mxCell>
        <mxCell id="uU5RGSB3s6F5FcrHu-Rf-32" style="edgeStyle=orthogonalEdgeStyle;rounded=0;orthogonalLoop=1;jettySize=auto;html=1;exitX=0.5;exitY=1;exitDx=0;exitDy=0;entryX=0;entryY=0.5;entryDx=0;entryDy=0;fontSize=12;startSize=8;endSize=8;" edge="1" parent="1" source="uU5RGSB3s6F5FcrHu-Rf-14" target="uU5RGSB3s6F5FcrHu-Rf-31">
          <mxGeometry relative="1" as="geometry" />
        </mxCell>
        <mxCell id="uU5RGSB3s6F5FcrHu-Rf-14" value="Click a room to manage" style="rounded=1;whiteSpace=wrap;html=1;absoluteArcSize=1;arcSize=14;strokeWidth=2;fontSize=16;" vertex="1" parent="1">
          <mxGeometry x="250" y="405" width="150" height="40" as="geometry" />
        </mxCell>
        <mxCell id="uU5RGSB3s6F5FcrHu-Rf-40" style="edgeStyle=orthogonalEdgeStyle;rounded=0;orthogonalLoop=1;jettySize=auto;html=1;exitX=0.5;exitY=1;exitDx=0;exitDy=0;entryX=0;entryY=0.5;entryDx=0;entryDy=0;fontSize=12;startSize=8;endSize=8;" edge="1" parent="1" source="uU5RGSB3s6F5FcrHu-Rf-16" target="uU5RGSB3s6F5FcrHu-Rf-30">
          <mxGeometry relative="1" as="geometry" />
        </mxCell>
        <mxCell id="uU5RGSB3s6F5FcrHu-Rf-16" value="Update room details and availability" style="rounded=1;whiteSpace=wrap;html=1;absoluteArcSize=1;arcSize=14;strokeWidth=2;fontSize=16;" vertex="1" parent="1">
          <mxGeometry x="250" y="590" width="150" height="40" as="geometry" />
        </mxCell>
        <mxCell id="uU5RGSB3s6F5FcrHu-Rf-17" style="edgeStyle=none;curved=1;rounded=0;orthogonalLoop=1;jettySize=auto;html=1;exitX=0.5;exitY=1;exitDx=0;exitDy=0;entryX=0.5;entryY=0;entryDx=0;entryDy=0;fontSize=12;startSize=8;endSize=8;" edge="1" parent="1" source="uU5RGSB3s6F5FcrHu-Rf-18" target="uU5RGSB3s6F5FcrHu-Rf-19">
          <mxGeometry relative="1" as="geometry" />
        </mxCell>
        <mxCell id="uU5RGSB3s6F5FcrHu-Rf-18" value="Notify students that complaint has been resolved" style="rounded=1;whiteSpace=wrap;html=1;absoluteArcSize=1;arcSize=14;strokeWidth=2;fontSize=16;" vertex="1" parent="1">
          <mxGeometry x="640" y="1180" width="150" height="70" as="geometry" />
        </mxCell>
        <mxCell id="uU5RGSB3s6F5FcrHu-Rf-19" value="" style="ellipse;html=1;shape=endState;fillColor=#000000;strokeColor=#ff0000;fontSize=16;" vertex="1" parent="1">
          <mxGeometry x="700" y="1305" width="30" height="30" as="geometry" />
        </mxCell>
        <mxCell id="uU5RGSB3s6F5FcrHu-Rf-20" style="edgeStyle=none;curved=1;rounded=0;orthogonalLoop=1;jettySize=auto;html=1;exitX=0;exitY=0.5;exitDx=0;exitDy=0;exitPerimeter=0;entryX=1;entryY=0.5;entryDx=0;entryDy=0;fontSize=12;startSize=8;endSize=8;" edge="1" parent="1" source="uU5RGSB3s6F5FcrHu-Rf-21" target="uU5RGSB3s6F5FcrHu-Rf-14">
          <mxGeometry relative="1" as="geometry" />
        </mxCell>
        <mxCell id="uU5RGSB3s6F5FcrHu-Rf-21" value="Proceed ?" style="strokeWidth=2;html=1;shape=mxgraph.flowchart.decision;whiteSpace=wrap;fontSize=16;" vertex="1" parent="1">
          <mxGeometry x="665" y="375" width="100" height="100" as="geometry" />
        </mxCell>
        <mxCell id="uU5RGSB3s6F5FcrHu-Rf-22" value="(False)" style="text;html=1;align=center;verticalAlign=middle;resizable=0;points=[];autosize=1;strokeColor=none;fillColor=none;fontSize=16;" vertex="1" parent="1">
          <mxGeometry x="758" y="396" width="70" height="30" as="geometry" />
        </mxCell>
        <mxCell id="uU5RGSB3s6F5FcrHu-Rf-23" value="(True)" style="text;html=1;align=center;verticalAlign=middle;resizable=0;points=[];autosize=1;strokeColor=none;fillColor=none;fontSize=16;" vertex="1" parent="1">
          <mxGeometry x="600" y="395" width="70" height="30" as="geometry" />
        </mxCell>
        <mxCell id="uU5RGSB3s6F5FcrHu-Rf-41" style="edgeStyle=none;curved=1;rounded=0;orthogonalLoop=1;jettySize=auto;html=1;exitX=0.5;exitY=1;exitDx=0;exitDy=0;entryX=0.5;entryY=0;entryDx=0;entryDy=0;fontSize=12;startSize=8;endSize=8;" edge="1" parent="1" source="uU5RGSB3s6F5FcrHu-Rf-30" target="uU5RGSB3s6F5FcrHu-Rf-35">
          <mxGeometry relative="1" as="geometry" />
        </mxCell>
        <mxCell id="uU5RGSB3s6F5FcrHu-Rf-30" value="Validate room availability information" style="rounded=1;whiteSpace=wrap;html=1;absoluteArcSize=1;arcSize=14;strokeWidth=2;fontSize=16;" vertex="1" parent="1">
          <mxGeometry x="640" y="690" width="150" height="60" as="geometry" />
        </mxCell>
        <mxCell id="uU5RGSB3s6F5FcrHu-Rf-33" style="edgeStyle=orthogonalEdgeStyle;rounded=0;orthogonalLoop=1;jettySize=auto;html=1;exitX=0.5;exitY=1;exitDx=0;exitDy=0;entryX=1;entryY=0.5;entryDx=0;entryDy=0;fontSize=12;startSize=8;endSize=8;" edge="1" parent="1" source="uU5RGSB3s6F5FcrHu-Rf-31" target="uU5RGSB3s6F5FcrHu-Rf-16">
          <mxGeometry relative="1" as="geometry" />
        </mxCell>
        <mxCell id="uU5RGSB3s6F5FcrHu-Rf-31" value="Retrieves and display the room details" style="rounded=1;whiteSpace=wrap;html=1;absoluteArcSize=1;arcSize=14;strokeWidth=2;fontSize=16;" vertex="1" parent="1">
          <mxGeometry x="640" y="520" width="150" height="60" as="geometry" />
        </mxCell>
        <mxCell id="uU5RGSB3s6F5FcrHu-Rf-42" style="edgeStyle=none;curved=1;rounded=0;orthogonalLoop=1;jettySize=auto;html=1;exitX=0;exitY=0.5;exitDx=0;exitDy=0;entryX=1;entryY=0.5;entryDx=0;entryDy=0;fontSize=12;startSize=8;endSize=8;" edge="1" parent="1" source="uU5RGSB3s6F5FcrHu-Rf-35" target="uU5RGSB3s6F5FcrHu-Rf-36">
          <mxGeometry relative="1" as="geometry" />
        </mxCell>
        <mxCell id="uU5RGSB3s6F5FcrHu-Rf-35" value="Update room record and availability status" style="rounded=1;whiteSpace=wrap;html=1;absoluteArcSize=1;arcSize=14;strokeWidth=2;fontSize=16;" vertex="1" parent="1">
          <mxGeometry x="640" y="800" width="150" height="60" as="geometry" />
        </mxCell>
        <mxCell id="uU5RGSB3s6F5FcrHu-Rf-43" style="edgeStyle=orthogonalEdgeStyle;rounded=0;orthogonalLoop=1;jettySize=auto;html=1;exitX=0.5;exitY=1;exitDx=0;exitDy=0;entryX=0;entryY=0.5;entryDx=0;entryDy=0;fontSize=12;startSize=8;endSize=8;" edge="1" parent="1" source="uU5RGSB3s6F5FcrHu-Rf-36" target="uU5RGSB3s6F5FcrHu-Rf-37">
          <mxGeometry relative="1" as="geometry" />
        </mxCell>
        <mxCell id="uU5RGSB3s6F5FcrHu-Rf-36" value="Assign room to a student" style="rounded=1;whiteSpace=wrap;html=1;absoluteArcSize=1;arcSize=14;strokeWidth=2;fontSize=16;" vertex="1" parent="1">
          <mxGeometry x="250" y="805" width="150" height="50" as="geometry" />
        </mxCell>
        <mxCell id="uU5RGSB3s6F5FcrHu-Rf-44" style="edgeStyle=none;curved=1;rounded=0;orthogonalLoop=1;jettySize=auto;html=1;exitX=0.5;exitY=1;exitDx=0;exitDy=0;entryX=0.5;entryY=0;entryDx=0;entryDy=0;fontSize=12;startSize=8;endSize=8;" edge="1" parent="1" source="uU5RGSB3s6F5FcrHu-Rf-37" target="uU5RGSB3s6F5FcrHu-Rf-38">
          <mxGeometry relative="1" as="geometry" />
        </mxCell>
        <mxCell id="uU5RGSB3s6F5FcrHu-Rf-37" value="Validate student information" style="rounded=1;whiteSpace=wrap;html=1;absoluteArcSize=1;arcSize=14;strokeWidth=2;fontSize=16;" vertex="1" parent="1">
          <mxGeometry x="640" y="930" width="150" height="60" as="geometry" />
        </mxCell>
        <mxCell id="uU5RGSB3s6F5FcrHu-Rf-45" style="edgeStyle=none;curved=1;rounded=0;orthogonalLoop=1;jettySize=auto;html=1;exitX=0;exitY=0.5;exitDx=0;exitDy=0;entryX=1;entryY=0.5;entryDx=0;entryDy=0;fontSize=12;startSize=8;endSize=8;" edge="1" parent="1" source="uU5RGSB3s6F5FcrHu-Rf-38" target="uU5RGSB3s6F5FcrHu-Rf-39">
          <mxGeometry relative="1" as="geometry" />
        </mxCell>
        <mxCell id="uU5RGSB3s6F5FcrHu-Rf-38" value="Update room assignment" style="rounded=1;whiteSpace=wrap;html=1;absoluteArcSize=1;arcSize=14;strokeWidth=2;fontSize=16;" vertex="1" parent="1">
          <mxGeometry x="640" y="1040" width="150" height="60" as="geometry" />
        </mxCell>
        <mxCell id="uU5RGSB3s6F5FcrHu-Rf-46" style="edgeStyle=orthogonalEdgeStyle;rounded=0;orthogonalLoop=1;jettySize=auto;html=1;exitX=0.5;exitY=1;exitDx=0;exitDy=0;entryX=0;entryY=0.5;entryDx=0;entryDy=0;fontSize=12;startSize=8;endSize=8;" edge="1" parent="1" source="uU5RGSB3s6F5FcrHu-Rf-39" target="uU5RGSB3s6F5FcrHu-Rf-18">
          <mxGeometry relative="1" as="geometry" />
        </mxCell>
        <mxCell id="uU5RGSB3s6F5FcrHu-Rf-39" value="Confirm the room assignment" style="rounded=1;whiteSpace=wrap;html=1;absoluteArcSize=1;arcSize=14;strokeWidth=2;fontSize=16;" vertex="1" parent="1">
          <mxGeometry x="250" y="1045" width="150" height="50" as="geometry" />
        </mxCell>
      </root>
    </mxGraphModel>
  </diagram>
</mxfile>
